<svg width="48" height="48" viewBox="0 0 48 48" fill="none" xmlns="http://www.w3.org/2000/svg">
<path d="M22.5 36.5H18C15.8 36.5 14 38.3 14 40.5V41H12C11.18 41 10.5 41.68 10.5 42.5C10.5 43.32 11.18 44 12 44H36C36.82 44 37.5 43.32 37.5 42.5C37.5 41.68 36.82 41 36 41H34V40.5C34 38.3 32.2 36.5 30 36.5H25.5V31.92C25 31.98 24.5 32 24 32C23.5 32 23 31.98 22.5 31.92V36.5Z" fill="#E4A1FF"/>
<path d="M36.9601 23.28C38.2801 22.78 39.4401 21.96 40.3601 21.04C42.2201 18.98 43.4401 16.52 43.4401 13.64C43.4401 10.76 41.1801 8.5 38.3001 8.5H37.1801C35.8801 5.84 33.1601 4 30.0001 4H18.0001C14.8401 4 12.1201 5.84 10.8201 8.5H9.70006C6.82006 8.5 4.56006 10.76 4.56006 13.64C4.56006 16.52 5.78006 18.98 7.64006 21.04C8.56006 21.96 9.72006 22.78 11.0401 23.28C13.1201 28.4 18.1201 32 24.0001 32C29.8801 32 34.8801 28.4 36.9601 23.28ZM29.6801 16.9L28.4401 18.42C28.2401 18.64 28.1001 19.08 28.1201 19.38L28.2401 21.34C28.3201 22.54 27.4601 23.16 26.3401 22.72L24.5201 22C24.2401 21.9 23.7601 21.9 23.4801 22L21.6601 22.72C20.5401 23.16 19.6801 22.54 19.7601 21.34L19.8801 19.38C19.9001 19.08 19.7601 18.64 19.5601 18.42L18.3201 16.9C17.5401 15.98 17.8801 14.96 19.0401 14.66L20.9401 14.18C21.2401 14.1 21.6001 13.82 21.7601 13.56L22.8201 11.92C23.4801 10.9 24.5201 10.9 25.1801 11.92L26.2401 13.56C26.4001 13.82 26.7601 14.1 27.0601 14.18L28.9601 14.66C30.1201 14.96 30.4601 15.98 29.6801 16.9Z" fill="#E4A1FF"/>
</svg>

