<svg width="32" height="32" viewBox="0 0 32 32" fill="none" xmlns="http://www.w3.org/2000/svg">
<path opacity="0.4" d="M27.1999 21.7733C26.8266 22.7733 26.0399 23.5333 25.0133 23.8799C23.5733 24.3599 22.0933 24.7199 20.5999 24.9733C20.4533 24.9999 20.3066 25.0266 20.1599 25.0399C19.9199 25.0799 19.6799 25.1066 19.4399 25.1333C19.1466 25.1733 18.8399 25.1999 18.5333 25.2266C17.6933 25.2933 16.8666 25.3333 16.0266 25.3333C15.1733 25.3333 14.3199 25.2933 13.4799 25.2133C13.1199 25.1866 12.7733 25.1466 12.4266 25.0933C12.2266 25.0666 12.0266 25.0399 11.8399 25.0133C11.6933 24.9866 11.5466 24.9733 11.3999 24.9466C9.91995 24.7066 8.45328 24.3466 7.02661 23.8666C5.95994 23.5066 5.14661 22.7466 4.78661 21.7733C4.42661 20.8133 4.55994 19.6933 5.13328 18.7333L6.63995 16.2266C6.95994 15.6799 7.25328 14.6266 7.25328 13.9866V11.5066C7.25328 6.66661 11.1866 2.73328 16.0266 2.73328C20.8533 2.73328 24.7866 6.66661 24.7866 11.5066V13.9866C24.7866 14.6266 25.0799 15.6799 25.4133 16.2266L26.9199 18.7333C27.4666 19.6666 27.5733 20.7599 27.1999 21.7733Z" fill="#FCB917"/>
<path d="M16 14.3466C15.44 14.3466 14.9867 13.8933 14.9867 13.3333V9.19998C14.9867 8.63998 15.44 8.18665 16 8.18665C16.56 8.18665 17.0134 8.63998 17.0134 9.19998V13.3333C17 13.8933 16.5467 14.3466 16 14.3466Z" fill="#FCB917"/>
<path d="M19.7733 26.68C19.2133 28.2266 17.7333 29.3333 16 29.3333C14.9467 29.3333 13.9067 28.9066 13.1733 28.1466C12.7467 27.7466 12.4267 27.2133 12.24 26.6666C12.4133 26.6933 12.5867 26.7066 12.7733 26.7333C13.08 26.7733 13.4 26.8133 13.72 26.84C14.48 26.9066 15.2533 26.9466 16.0267 26.9466C16.7867 26.9466 17.5467 26.9066 18.2933 26.84C18.5733 26.8133 18.8533 26.8 19.12 26.76C19.3333 26.7333 19.5467 26.7066 19.7733 26.68Z" fill="#FCB917"/>
</svg>

