<svg width="36" height="36" viewBox="0 0 36 36" fill="none" xmlns="http://www.w3.org/2000/svg">
<path opacity="0.4" d="M26.2951 11.655C26.1901 11.64 26.0851 11.64 25.9801 11.655C23.6551 11.58 21.8101 9.675 21.8101 7.335C21.8101 4.95 23.7451 3 26.1451 3C28.5301 3 30.4801 4.935 30.4801 7.335C30.4651 9.675 28.6201 11.58 26.2951 11.655Z" fill="#CCCCCC"/>
<path opacity="0.4" d="M31.185 22.0501C29.505 23.1751 27.15 23.5951 24.975 23.3101C25.545 22.0801 25.845 20.7151 25.86 19.2751C25.86 17.7751 25.53 16.3501 24.9 15.1051C27.12 14.8051 29.475 15.2251 31.17 16.3501C33.54 17.9101 33.54 20.4751 31.185 22.0501Z" fill="#CCCCCC"/>
<path opacity="0.4" d="M9.65997 11.655C9.76497 11.64 9.86998 11.64 9.97498 11.655C12.3 11.58 14.145 9.675 14.145 7.335C14.145 4.95 12.21 3 9.80997 3C7.42497 3 5.47498 4.935 5.47498 7.335C5.48998 9.675 7.33497 11.58 9.65997 11.655Z" fill="#CCCCCC"/>
<path opacity="0.4" d="M9.82505 19.2749C9.82505 20.7299 10.1401 22.1099 10.7101 23.3549C8.59505 23.5799 6.39005 23.1299 4.77005 22.0649C2.40005 20.4899 2.40005 17.9249 4.77005 16.3499C6.37505 15.2699 8.64005 14.8349 10.7701 15.0749C10.1551 16.3349 9.82505 17.7599 9.82505 19.2749Z" fill="#CCCCCC"/>
<path d="M18.18 23.805C18.06 23.79 17.925 23.79 17.79 23.805C15.03 23.715 12.825 21.45 12.825 18.66C12.825 15.81 15.12 13.5 17.985 13.5C20.835 13.5 23.145 15.81 23.145 18.66C23.145 21.45 20.955 23.715 18.18 23.805Z" fill="#CCCCCC"/>
<path d="M13.305 26.91C11.04 28.425 11.04 30.915 13.305 32.415C15.885 34.14 20.115 34.14 22.695 32.415C24.96 30.9 24.96 28.41 22.695 26.91C20.13 25.185 15.9 25.185 13.305 26.91Z" fill="#CCCCCC"/>
</svg>

